<svg width="73" height="73" viewBox="0 0 73 73" fill="none" xmlns="http://www.w3.org/2000/svg">
<path d="M21.9852 29.5144L34.7293 9.09964C35.0029 8.70208 35.3161 8.40391 35.6687 8.20513C36.0218 8.00685 36.4224 7.90771 36.8704 7.90771C37.3184 7.90771 37.7189 8.00685 38.072 8.20513C38.4256 8.40391 38.7393 8.70208 39.013 9.09964L51.7743 29.5144C52.048 29.9664 52.1723 30.4209 52.1474 30.8779C52.1224 31.3349 52.001 31.7619 51.7833 32.159C51.566 32.5565 51.2651 32.8702 50.8805 33.0999C50.496 33.3297 50.0552 33.4446 49.5583 33.4446H24.184C23.681 33.4446 23.2348 33.3277 22.8452 33.094C22.4557 32.8607 22.1602 32.5491 21.959 32.159C21.7412 31.7624 21.6198 31.3367 21.5949 30.8817C21.5699 30.4262 21.7 29.9704 21.9852 29.5144ZM54.0975 67.1795C50.2822 67.1795 47.082 65.885 44.4969 63.2959C41.9123 60.7072 40.6199 57.5063 40.6199 53.693C40.6199 49.8798 41.9118 46.6768 44.4954 44.0842C47.0785 41.4911 50.2795 40.1945 54.0982 40.1945C57.917 40.1945 61.1199 41.4904 63.707 44.082C66.2936 46.6731 67.587 49.877 67.587 53.6938C67.587 57.5105 66.2924 60.7125 63.7033 63.2996C61.1147 65.8862 57.9127 67.1795 54.0975 67.1795ZM8.78711 62.737V44.1884C8.78711 43.4692 9.03234 42.8611 9.52279 42.3641C10.0132 41.8667 10.6246 41.618 11.3568 41.618H29.9233C30.6435 41.618 31.2491 41.8667 31.7401 42.3641C32.2305 42.8611 32.4758 43.4692 32.4758 44.1884V62.737C32.4758 63.4692 32.2305 64.0805 31.7401 64.5709C31.2491 65.0614 30.6435 65.3066 29.9233 65.3066H11.3568C10.6246 65.3066 10.0132 65.0614 9.52279 64.5709C9.03234 64.0805 8.78711 63.4692 8.78711 62.737ZM54.1102 62.0575C56.4556 62.0575 58.4344 61.2491 60.0466 59.6324C61.6588 58.0162 62.4649 56.0354 62.4649 53.69C62.4649 51.3446 61.6566 49.3629 60.0398 47.7447C58.4236 46.126 56.4429 45.3166 54.0975 45.3166C51.7521 45.3166 49.7703 46.1279 48.1521 47.7506C46.5334 49.3733 45.724 51.3574 45.724 53.7028C45.724 56.0482 46.5354 58.027 48.1581 59.6392C49.7808 61.2514 51.7648 62.0575 54.1102 62.0575ZM13.9092 60.1846H27.3717V46.74H13.9092V60.1846ZM28.7854 28.3225H44.9569L36.8711 15.2278L28.7854 28.3225Z" fill="#8A38F5"/>
</svg>
