<svg width="73" height="73" viewBox="0 0 73 73" fill="none" xmlns="http://www.w3.org/2000/svg">
<path d="M17.4105 63.8068C16.6863 63.8068 16.0822 63.5616 15.5983 63.0711C15.1138 62.5807 14.8716 61.9751 14.8716 61.2544V14.5199C14.8716 13.7992 15.1168 13.1906 15.6073 12.6942C16.0977 12.1977 16.7033 11.9495 17.424 11.9495H33.809C34.5297 11.9495 35.1353 12.199 35.6257 12.6979C36.1162 13.1969 36.3614 13.8084 36.3614 14.5326C36.3614 15.2568 36.1162 15.8612 35.6257 16.3456C35.1353 16.8296 34.5297 17.0716 33.809 17.0716H19.9757V35.5535H41.5831C42.179 35.5535 42.7129 35.7301 43.1848 36.0832C43.6563 36.4368 43.948 36.9182 44.0599 37.5276L45.0548 41.9214H55.6135V38.8581C55.6135 38.1614 55.857 37.5708 56.3439 37.0863C56.8309 36.6018 57.4425 36.3596 58.1787 36.3596C58.9029 36.3596 59.5099 36.6048 59.9999 37.0953C60.4903 37.5857 60.7356 38.1911 60.7356 38.9113V44.4731C60.7356 45.1938 60.4873 45.7994 59.9909 46.2898C59.4944 46.7803 58.8859 47.0255 58.1652 47.0255H42.7638C42.1675 47.0255 41.6336 46.8487 41.1621 46.4951C40.6901 46.142 40.3982 45.6608 40.2863 45.0514L39.2914 40.6576H19.9757V61.2544C19.9757 61.9751 19.7292 62.5807 19.2362 63.0711C18.7433 63.5616 18.1347 63.8068 17.4105 63.8068ZM54.7939 3.72815C58.8149 3.72815 62.2426 5.14832 65.077 7.98866C67.9108 10.8285 69.3278 14.2529 69.3278 18.262C69.3278 22.283 67.9108 25.7107 65.077 28.545C62.2426 31.3789 58.8149 32.7958 54.7939 32.7958C50.7849 32.7958 47.3604 31.3789 44.5206 28.545C41.6803 25.7107 40.2601 22.283 40.2601 18.262C40.2601 14.2529 41.6803 10.8285 44.5206 7.98866C47.3604 5.14832 50.7849 3.72815 54.7939 3.72815ZM52.7892 20.4166L49.5438 17.1532C49.2201 16.8416 48.8405 16.6827 48.405 16.6767C47.9695 16.6708 47.5959 16.8296 47.2843 17.1532C46.9611 17.4649 46.7966 17.8415 46.7906 18.283C46.7846 18.724 46.9432 19.1003 47.2663 19.412L50.9829 23.1286C51.4923 23.638 52.0944 23.8927 52.7892 23.8927C53.4844 23.8927 54.0865 23.638 54.5954 23.1286L62.3215 15.2915C62.6332 14.9889 62.789 14.6205 62.789 14.1865C62.789 13.753 62.6332 13.3744 62.3215 13.0508C61.9979 12.7391 61.6186 12.5803 61.1836 12.5743C60.748 12.5683 60.3745 12.7271 60.0628 13.0508L52.7892 20.4166Z" fill="#DBDBDB"/>
<path d="M17.4105 63.8068C16.6863 63.8068 16.0822 63.5616 15.5983 63.0711C15.1138 62.5807 14.8716 61.9751 14.8716 61.2544V14.5199C14.8716 13.7992 15.1168 13.1906 15.6073 12.6942C16.0977 12.1977 16.7033 11.9495 17.424 11.9495H33.809C34.5297 11.9495 35.1353 12.199 35.6257 12.6979C36.1162 13.1969 36.3614 13.8084 36.3614 14.5326C36.3614 15.2568 36.1162 15.8612 35.6257 16.3456C35.1353 16.8296 34.5297 17.0716 33.809 17.0716H19.9757V35.5535H41.5831C42.179 35.5535 42.7129 35.7301 43.1848 36.0832C43.6563 36.4368 43.948 36.9182 44.0599 37.5276L45.0548 41.9214H55.6135V38.8581C55.6135 38.1614 55.857 37.5708 56.3439 37.0863C56.8309 36.6018 57.4425 36.3596 58.1787 36.3596C58.9029 36.3596 59.5099 36.6048 59.9999 37.0953C60.4903 37.5857 60.7356 38.1911 60.7356 38.9113V44.4731C60.7356 45.1938 60.4873 45.7994 59.9909 46.2898C59.4944 46.7803 58.8859 47.0255 58.1652 47.0255H42.7638C42.1675 47.0255 41.6336 46.8487 41.1621 46.4951C40.6901 46.142 40.3982 45.6608 40.2863 45.0514L39.2914 40.6576H19.9757V61.2544C19.9757 61.9751 19.7292 62.5807 19.2362 63.0711C18.7433 63.5616 18.1347 63.8068 17.4105 63.8068ZM54.7939 3.72815C58.8149 3.72815 62.2426 5.14832 65.077 7.98866C67.9108 10.8285 69.3278 14.2529 69.3278 18.262C69.3278 22.283 67.9108 25.7107 65.077 28.545C62.2426 31.3789 58.8149 32.7958 54.7939 32.7958C50.7849 32.7958 47.3604 31.3789 44.5206 28.545C41.6803 25.7107 40.2601 22.283 40.2601 18.262C40.2601 14.2529 41.6803 10.8285 44.5206 7.98866C47.3604 5.14832 50.7849 3.72815 54.7939 3.72815ZM52.7892 20.4166L49.5438 17.1532C49.2201 16.8416 48.8405 16.6827 48.405 16.6767C47.9695 16.6708 47.5959 16.8296 47.2843 17.1532C46.9611 17.4649 46.7966 17.8415 46.7906 18.283C46.7846 18.724 46.9432 19.1003 47.2663 19.412L50.9829 23.1286C51.4923 23.638 52.0944 23.8927 52.7892 23.8927C53.4844 23.8927 54.0865 23.638 54.5954 23.1286L62.3215 15.2915C62.6332 14.9889 62.789 14.6205 62.789 14.1865C62.789 13.753 62.6332 13.3744 62.3215 13.0508C61.9979 12.7391 61.6186 12.5803 61.1836 12.5743C60.748 12.5683 60.3745 12.7271 60.0628 13.0508L52.7892 20.4166Z" fill="black" fill-opacity="0.2"/>
</svg>
