<svg width="73" height="73" viewBox="0 0 73 73" fill="none" xmlns="http://www.w3.org/2000/svg">
<path d="M8.8783 53.1169V20.4757C8.8783 19.0673 9.37799 17.8616 10.3774 16.8587C11.3773 15.8553 12.5789 15.3536 13.9824 15.3536H58.6102C60.0187 15.3536 61.2243 15.8553 62.2272 16.8587C63.2306 17.8616 63.7323 19.0673 63.7323 20.4757V53.1169C63.7323 54.5203 63.2306 55.722 62.2272 56.7219C61.2243 57.7213 60.0187 58.221 58.6102 58.221H13.9824C12.5789 58.221 11.3773 57.7213 10.3774 56.7219C9.37799 55.722 8.8783 54.5203 8.8783 53.1169ZM29.7328 34.3697H58.6102V20.4757H29.7328V34.3697ZM46.8888 53.1169H58.6102V39.2228H46.8888V53.1169ZM29.7328 53.1169H41.5112V39.2228H29.7328V53.1169ZM13.9824 53.1169H24.8797V20.4757H13.9824V53.1169Z" fill="#DBDBDB"/>
<path d="M8.8783 53.1169V20.4757C8.8783 19.0673 9.37799 17.8616 10.3774 16.8587C11.3773 15.8553 12.5789 15.3536 13.9824 15.3536H58.6102C60.0187 15.3536 61.2243 15.8553 62.2272 16.8587C63.2306 17.8616 63.7323 19.0673 63.7323 20.4757V53.1169C63.7323 54.5203 63.2306 55.722 62.2272 56.7219C61.2243 57.7213 60.0187 58.221 58.6102 58.221H13.9824C12.5789 58.221 11.3773 57.7213 10.3774 56.7219C9.37799 55.722 8.8783 54.5203 8.8783 53.1169ZM29.7328 34.3697H58.6102V20.4757H29.7328V34.3697ZM46.8888 53.1169H58.6102V39.2228H46.8888V53.1169ZM29.7328 53.1169H41.5112V39.2228H29.7328V53.1169ZM13.9824 53.1169H24.8797V20.4757H13.9824V53.1169Z" fill="black" fill-opacity="0.2"/>
</svg>
