<svg width="73" height="73" viewBox="0 0 73 73" fill="none" xmlns="http://www.w3.org/2000/svg">
<path d="M29.8827 64.6946V55.1412C29.8827 54.82 29.9387 54.5126 30.0505 54.219C30.1624 53.9253 30.3552 53.6366 30.6289 53.3529L52.2034 31.7784C52.7123 31.2695 53.2932 30.9001 53.9459 30.6704C54.5987 30.4407 55.235 30.3258 55.8548 30.3258C56.4876 30.3258 57.1137 30.4531 57.733 30.7079C58.3523 30.9626 58.9182 31.3444 59.4306 31.8533L65.2584 37.6631C65.7793 38.1721 66.1546 38.7534 66.3844 39.4072C66.6141 40.0605 66.729 40.7075 66.729 41.3483C66.729 41.9891 66.6141 42.6184 66.3844 43.2362C66.1546 43.854 65.7853 44.4174 65.2763 44.9263L43.7768 66.4828C43.4981 66.7565 43.2106 66.9523 42.9145 67.0702C42.6183 67.188 42.3096 67.247 41.9885 67.247H32.4351C31.7144 67.247 31.1088 67.0017 30.6184 66.5113C30.1279 66.0208 29.8827 65.4153 29.8827 64.6946ZM34.7178 62.3931H40.9726L53.6882 49.7015L50.5208 46.6089L47.3533 43.5164L34.7178 56.0507V62.3931ZM15.3227 67.247C12.6921 67.247 10.4551 66.326 8.61163 64.484C6.76768 62.6421 5.8457 60.4053 5.8457 57.7738C5.8457 55.6162 6.49548 53.6968 7.79503 52.0157C9.09409 50.334 10.7515 49.219 12.7673 48.6706V24.9041C10.748 24.3687 9.08959 23.2631 7.79204 21.5875C6.49448 19.9114 5.8457 17.9885 5.8457 15.8189C5.8457 13.1874 6.76668 10.9506 8.60863 9.10864C10.4506 7.26669 12.6873 6.34571 15.3189 6.34571C17.4885 6.34571 19.4104 6.99549 21.0845 8.29504C22.7586 9.5941 23.8712 11.2515 24.422 13.2673H35.013L30.9053 9.14235C30.3844 8.62892 30.1269 8.02884 30.1329 7.34211C30.1389 6.65537 30.3926 6.05728 30.8941 5.54785C31.395 5.03892 31.9891 4.78745 32.6764 4.79344C33.3631 4.79893 33.9649 5.0504 34.4818 5.54785L43.0224 14.0134C43.5318 14.5314 43.7865 15.1357 43.7865 15.8264C43.7865 16.5167 43.5318 17.1165 43.0224 17.6259L34.4818 26.0735C33.9749 26.533 33.3793 26.7722 32.6951 26.7912C32.0113 26.8102 31.4148 26.569 30.9053 26.0675C30.3964 25.5661 30.1419 24.9702 30.1419 24.28C30.1419 23.5893 30.3964 22.989 30.9053 22.479L35.013 18.3721H24.422C23.9865 19.9818 23.1884 21.367 22.0277 22.5277C20.867 23.6884 19.4818 24.4805 17.8721 24.9041V48.6706C19.8878 49.2215 21.5452 50.334 22.8443 52.0082C24.1438 53.6823 24.7936 55.6042 24.7936 57.7738C24.7936 60.4053 23.8729 62.6421 22.0314 64.484C20.1895 66.326 17.9532 67.247 15.3227 67.247ZM57.27 6.34571C59.9006 6.34571 62.1376 7.26644 63.981 9.10789C65.825 10.9498 66.747 13.1861 66.747 15.8167C66.747 18.4473 65.8262 20.6843 63.9848 22.5277C62.1428 24.3717 59.9066 25.2936 57.276 25.2936C54.6454 25.2936 52.4084 24.3729 50.565 22.5315C48.721 20.6895 47.799 18.4532 47.799 15.8227C47.799 13.1921 48.7198 10.9551 50.5612 9.11164C52.4032 7.26769 54.6394 6.34571 57.27 6.34571ZM15.3197 62.1249C16.5573 62.1249 17.5949 61.7089 18.4325 60.8768C19.2705 60.0452 19.6896 59.0106 19.6896 57.773C19.6896 56.5354 19.2708 55.4978 18.4332 54.6602C17.5956 53.8222 16.5578 53.4031 15.3197 53.4031C14.082 53.4031 13.0474 53.8219 12.2159 54.6595C11.3838 55.497 10.9678 56.5349 10.9678 57.773C10.9678 59.0106 11.3838 60.0452 12.2159 60.8768C13.0474 61.7089 14.082 62.1249 15.3197 62.1249ZM15.3197 20.1716C16.5573 20.1716 17.5949 19.7555 18.4325 18.9235C19.2705 18.0919 19.6896 17.0573 19.6896 15.8197C19.6896 14.5821 19.2708 13.5445 18.4332 12.7069C17.5956 11.8688 16.5578 11.4498 15.3197 11.4498C14.082 11.4498 13.0474 11.8686 12.2159 12.7061C11.3838 13.5437 10.9678 14.5816 10.9678 15.8197C10.9678 17.0573 11.3838 18.0919 12.2159 18.9235C13.0474 19.7555 14.082 20.1716 15.3197 20.1716ZM57.273 20.1716C58.5106 20.1716 59.5482 19.7555 60.3858 18.9235C61.2239 18.0919 61.6429 17.0573 61.6429 15.8197C61.6429 14.5821 61.2241 13.5445 60.3865 12.7069C59.549 11.8688 58.5111 11.4498 57.273 11.4498C56.0354 11.4498 55.0008 11.8686 54.1692 12.7061C53.3371 13.5437 52.9211 14.5816 52.9211 15.8197C52.9211 17.0573 53.3371 18.0919 54.1692 18.9235C55.0008 19.7555 56.0354 20.1716 57.273 20.1716Z" fill="#DBDBDB"/>
<path d="M29.8827 64.6946V55.1412C29.8827 54.82 29.9387 54.5126 30.0505 54.219C30.1624 53.9253 30.3552 53.6366 30.6289 53.3529L52.2034 31.7784C52.7123 31.2695 53.2932 30.9001 53.9459 30.6704C54.5987 30.4407 55.235 30.3258 55.8548 30.3258C56.4876 30.3258 57.1137 30.4531 57.733 30.7079C58.3523 30.9626 58.9182 31.3444 59.4306 31.8533L65.2584 37.6631C65.7793 38.1721 66.1546 38.7534 66.3844 39.4072C66.6141 40.0605 66.729 40.7075 66.729 41.3483C66.729 41.9891 66.6141 42.6184 66.3844 43.2362C66.1546 43.854 65.7853 44.4174 65.2763 44.9263L43.7768 66.4828C43.4981 66.7565 43.2106 66.9523 42.9145 67.0702C42.6183 67.188 42.3096 67.247 41.9885 67.247H32.4351C31.7144 67.247 31.1088 67.0017 30.6184 66.5113C30.1279 66.0208 29.8827 65.4153 29.8827 64.6946ZM34.7178 62.3931H40.9726L53.6882 49.7015L50.5208 46.6089L47.3533 43.5164L34.7178 56.0507V62.3931ZM15.3227 67.247C12.6921 67.247 10.4551 66.326 8.61163 64.484C6.76768 62.6421 5.8457 60.4053 5.8457 57.7738C5.8457 55.6162 6.49548 53.6968 7.79503 52.0157C9.09409 50.334 10.7515 49.219 12.7673 48.6706V24.9041C10.748 24.3687 9.08959 23.2631 7.79204 21.5875C6.49448 19.9114 5.8457 17.9885 5.8457 15.8189C5.8457 13.1874 6.76668 10.9506 8.60863 9.10864C10.4506 7.26669 12.6873 6.34571 15.3189 6.34571C17.4885 6.34571 19.4104 6.99549 21.0845 8.29504C22.7586 9.5941 23.8712 11.2515 24.422 13.2673H35.013L30.9053 9.14235C30.3844 8.62892 30.1269 8.02884 30.1329 7.34211C30.1389 6.65537 30.3926 6.05728 30.8941 5.54785C31.395 5.03892 31.9891 4.78745 32.6764 4.79344C33.3631 4.79893 33.9649 5.0504 34.4818 5.54785L43.0224 14.0134C43.5318 14.5314 43.7865 15.1357 43.7865 15.8264C43.7865 16.5167 43.5318 17.1165 43.0224 17.6259L34.4818 26.0735C33.9749 26.533 33.3793 26.7722 32.6951 26.7912C32.0113 26.8102 31.4148 26.569 30.9053 26.0675C30.3964 25.5661 30.1419 24.9702 30.1419 24.28C30.1419 23.5893 30.3964 22.989 30.9053 22.479L35.013 18.3721H24.422C23.9865 19.9818 23.1884 21.367 22.0277 22.5277C20.867 23.6884 19.4818 24.4805 17.8721 24.9041V48.6706C19.8878 49.2215 21.5452 50.334 22.8443 52.0082C24.1438 53.6823 24.7936 55.6042 24.7936 57.7738C24.7936 60.4053 23.8729 62.6421 22.0314 64.484C20.1895 66.326 17.9532 67.247 15.3227 67.247ZM57.27 6.34571C59.9006 6.34571 62.1376 7.26644 63.981 9.10789C65.825 10.9498 66.747 13.1861 66.747 15.8167C66.747 18.4473 65.8262 20.6843 63.9848 22.5277C62.1428 24.3717 59.9066 25.2936 57.276 25.2936C54.6454 25.2936 52.4084 24.3729 50.565 22.5315C48.721 20.6895 47.799 18.4532 47.799 15.8227C47.799 13.1921 48.7198 10.9551 50.5612 9.11164C52.4032 7.26769 54.6394 6.34571 57.27 6.34571ZM15.3197 62.1249C16.5573 62.1249 17.5949 61.7089 18.4325 60.8768C19.2705 60.0452 19.6896 59.0106 19.6896 57.773C19.6896 56.5354 19.2708 55.4978 18.4332 54.6602C17.5956 53.8222 16.5578 53.4031 15.3197 53.4031C14.082 53.4031 13.0474 53.8219 12.2159 54.6595C11.3838 55.497 10.9678 56.5349 10.9678 57.773C10.9678 59.0106 11.3838 60.0452 12.2159 60.8768C13.0474 61.7089 14.082 62.1249 15.3197 62.1249ZM15.3197 20.1716C16.5573 20.1716 17.5949 19.7555 18.4325 18.9235C19.2705 18.0919 19.6896 17.0573 19.6896 15.8197C19.6896 14.5821 19.2708 13.5445 18.4332 12.7069C17.5956 11.8688 16.5578 11.4498 15.3197 11.4498C14.082 11.4498 13.0474 11.8686 12.2159 12.7061C11.3838 13.5437 10.9678 14.5816 10.9678 15.8197C10.9678 17.0573 11.3838 18.0919 12.2159 18.9235C13.0474 19.7555 14.082 20.1716 15.3197 20.1716ZM57.273 20.1716C58.5106 20.1716 59.5482 19.7555 60.3858 18.9235C61.2239 18.0919 61.6429 17.0573 61.6429 15.8197C61.6429 14.5821 61.2241 13.5445 60.3865 12.7069C59.549 11.8688 58.5111 11.4498 57.273 11.4498C56.0354 11.4498 55.0008 11.8686 54.1692 12.7061C53.3371 13.5437 52.9211 14.5816 52.9211 15.8197C52.9211 17.0573 53.3371 18.0919 54.1692 18.9235C55.0008 19.7555 56.0354 20.1716 57.273 20.1716Z" fill="black" fill-opacity="0.2"/>
</svg>
