<svg width="73" height="73" viewBox="0 0 73 73" fill="none" xmlns="http://www.w3.org/2000/svg">
<path d="M44.6028 41.7566L53.4805 36.6952C53.8655 36.4855 54.1763 36.1843 54.4128 35.7918C54.6488 35.3987 54.7668 34.9589 54.7668 34.4725V24.373C54.7668 23.908 54.6488 23.4747 54.4128 23.0732C54.1763 22.6711 53.8655 22.3654 53.4805 22.1562L44.6028 17.1128C44.2273 16.889 43.81 16.7772 43.351 16.7772C42.892 16.7772 42.4635 16.889 42.0655 17.1128L33.1878 22.1562C32.8028 22.3654 32.492 22.6711 32.2555 23.0732C32.0195 23.4747 31.9015 23.908 31.9015 24.373V34.4725C31.9015 34.9589 32.0195 35.3987 32.2555 35.7918C32.492 36.1843 32.8028 36.4855 33.1878 36.6952L42.0655 41.7566C42.441 41.9804 42.8583 42.0922 43.3173 42.0922C43.7763 42.0922 44.2048 41.9804 44.6028 41.7566ZM24.6708 53.1814C23.2908 53.1814 22.094 52.6737 21.0805 51.6584C20.0675 50.6425 19.561 49.4428 19.561 48.0594V10.7921C19.561 9.41359 20.0675 8.21817 21.0805 7.2058C22.094 6.19393 23.2908 5.68799 24.6708 5.68799H61.9975C63.3825 5.68799 64.5835 6.19393 65.6005 7.2058C66.617 8.21817 67.1253 9.41359 67.1253 10.7921V48.0594C67.1253 49.4428 66.617 50.6425 65.6005 51.6584C64.5835 52.6737 63.3825 53.1814 61.9975 53.1814H24.6708ZM24.6708 48.0594H61.9975V10.7921H24.6708V48.0594ZM16.2753 67.0148C14.8533 67.1886 13.5933 66.8597 12.4953 66.0281C11.3968 65.1965 10.7545 64.0728 10.5685 62.6569L5.80452 25.6885C5.61902 24.2736 5.96752 22.9917 6.85002 21.843C7.73252 20.6948 8.88252 20.0518 10.3 19.9139L12.736 19.6892C13.5195 19.6013 14.1693 19.8153 14.6853 20.3312C15.2008 20.8476 15.4585 21.4889 15.4585 22.2551C15.4585 22.9428 15.242 23.5167 14.809 23.9766C14.376 24.4371 13.846 24.7093 13.219 24.7932L10.9143 25.018L15.736 62.0036L57.9985 56.8703C58.682 56.7704 59.3088 56.9435 59.8788 57.3895C60.4493 57.835 60.7853 58.4098 60.8868 59.1141C60.9883 59.8178 60.8275 60.4331 60.4045 60.96C59.982 61.4864 59.4038 61.7996 58.6698 61.8995L16.2753 67.0148ZM43.3338 36.9395L36.76 33.112V25.7574L43.3338 21.9119L49.9263 25.7454V33.112L43.3338 36.9395Z" fill="#DBDBDB"/>
<path d="M44.6028 41.7566L53.4805 36.6952C53.8655 36.4855 54.1763 36.1843 54.4128 35.7918C54.6488 35.3987 54.7668 34.9589 54.7668 34.4725V24.373C54.7668 23.908 54.6488 23.4747 54.4128 23.0732C54.1763 22.6711 53.8655 22.3654 53.4805 22.1562L44.6028 17.1128C44.2273 16.889 43.81 16.7772 43.351 16.7772C42.892 16.7772 42.4635 16.889 42.0655 17.1128L33.1878 22.1562C32.8028 22.3654 32.492 22.6711 32.2555 23.0732C32.0195 23.4747 31.9015 23.908 31.9015 24.373V34.4725C31.9015 34.9589 32.0195 35.3987 32.2555 35.7918C32.492 36.1843 32.8028 36.4855 33.1878 36.6952L42.0655 41.7566C42.441 41.9804 42.8583 42.0922 43.3173 42.0922C43.7763 42.0922 44.2048 41.9804 44.6028 41.7566ZM24.6708 53.1814C23.2908 53.1814 22.094 52.6737 21.0805 51.6584C20.0675 50.6425 19.561 49.4428 19.561 48.0594V10.7921C19.561 9.41359 20.0675 8.21817 21.0805 7.2058C22.094 6.19393 23.2908 5.68799 24.6708 5.68799H61.9975C63.3825 5.68799 64.5835 6.19393 65.6005 7.2058C66.617 8.21817 67.1253 9.41359 67.1253 10.7921V48.0594C67.1253 49.4428 66.617 50.6425 65.6005 51.6584C64.5835 52.6737 63.3825 53.1814 61.9975 53.1814H24.6708ZM24.6708 48.0594H61.9975V10.7921H24.6708V48.0594ZM16.2753 67.0148C14.8533 67.1886 13.5933 66.8597 12.4953 66.0281C11.3968 65.1965 10.7545 64.0728 10.5685 62.6569L5.80452 25.6885C5.61902 24.2736 5.96752 22.9917 6.85002 21.843C7.73252 20.6948 8.88252 20.0518 10.3 19.9139L12.736 19.6892C13.5195 19.6013 14.1693 19.8153 14.6853 20.3312C15.2008 20.8476 15.4585 21.4889 15.4585 22.2551C15.4585 22.9428 15.242 23.5167 14.809 23.9766C14.376 24.4371 13.846 24.7093 13.219 24.7932L10.9143 25.018L15.736 62.0036L57.9985 56.8703C58.682 56.7704 59.3088 56.9435 59.8788 57.3895C60.4493 57.835 60.7853 58.4098 60.8868 59.1141C60.9883 59.8178 60.8275 60.4331 60.4045 60.96C59.982 61.4864 59.4038 61.7996 58.6698 61.8995L16.2753 67.0148ZM43.3338 36.9395L36.76 33.112V25.7574L43.3338 21.9119L49.9263 25.7454V33.112L43.3338 36.9395Z" fill="black" fill-opacity="0.2"/>
</svg>
