<svg width="73" height="73" viewBox="0 0 73 73" fill="none" xmlns="http://www.w3.org/2000/svg">
<path d="M21.4852 29.9219L34.2293 9.50711C34.503 9.10955 34.8162 8.81138 35.1688 8.6126C35.5219 8.41432 35.9224 8.31519 36.3704 8.31519C36.8184 8.31519 37.219 8.41432 37.5721 8.6126C37.9257 8.81138 38.2394 9.10955 38.513 9.50711L51.2744 29.9219C51.548 30.3739 51.6724 30.8284 51.6474 31.2854C51.6225 31.7424 51.5011 32.1694 51.2833 32.5665C51.0661 32.964 50.7652 33.2777 50.3806 33.5074C49.996 33.7372 49.5553 33.852 49.0583 33.852H23.684C23.1811 33.852 22.7348 33.7352 22.3453 33.5014C21.9557 33.2682 21.6603 32.9565 21.459 32.5665C21.2413 32.1699 21.1199 31.7441 21.0949 31.2891C21.07 30.8336 21.2001 30.3779 21.4852 29.9219ZM53.5975 67.587C49.7823 67.587 46.5821 66.2924 43.9969 63.7033C41.4123 61.1147 40.12 57.9138 40.12 54.1005C40.12 50.2872 41.4118 47.0843 43.9955 44.4917C46.5786 41.8986 49.7795 40.602 53.5983 40.602C57.417 40.602 60.62 41.8978 63.2071 44.4894C65.7937 47.0806 67.087 50.2845 67.087 54.1013C67.087 57.918 65.7925 61.1199 63.2033 63.7071C60.6147 66.2937 57.4128 67.587 53.5975 67.587ZM8.28717 63.1444V44.5958C8.28717 43.8766 8.5324 43.2686 9.02285 42.7716C9.51331 42.2742 10.1246 42.0254 10.8568 42.0254H29.4234C30.1436 42.0254 30.7492 42.2742 31.2401 42.7716C31.7306 43.2686 31.9758 43.8766 31.9758 44.5958V63.1444C31.9758 63.8766 31.7306 64.488 31.2401 64.9784C30.7492 65.4689 30.1436 65.7141 29.4234 65.7141H10.8568C10.1246 65.7141 9.51331 65.4689 9.02285 64.9784C8.5324 64.488 8.28717 63.8766 8.28717 63.1444ZM53.6103 62.465C55.9556 62.465 57.9344 61.6566 59.5466 60.0399C61.1589 58.4237 61.965 56.4429 61.965 54.0975C61.965 51.7521 61.1566 49.7703 59.5399 48.1521C57.9237 46.5334 55.9429 45.7241 53.5975 45.7241C51.2521 45.7241 49.2703 46.5354 47.6521 48.1581C46.0334 49.7808 45.2241 51.7649 45.2241 54.1102C45.2241 56.4556 46.0354 58.4344 47.6581 60.0466C49.2808 61.6589 51.2649 62.465 53.6103 62.465ZM13.4092 60.592H26.8717V47.1475H13.4092V60.592ZM28.2854 28.73H44.4569L36.3712 15.6353L28.2854 28.73Z" fill="#DBDBDB"/>
<path d="M21.4852 29.9219L34.2293 9.50711C34.503 9.10955 34.8162 8.81138 35.1688 8.6126C35.5219 8.41432 35.9224 8.31519 36.3704 8.31519C36.8184 8.31519 37.219 8.41432 37.5721 8.6126C37.9257 8.81138 38.2394 9.10955 38.513 9.50711L51.2744 29.9219C51.548 30.3739 51.6724 30.8284 51.6474 31.2854C51.6225 31.7424 51.5011 32.1694 51.2833 32.5665C51.0661 32.964 50.7652 33.2777 50.3806 33.5074C49.996 33.7372 49.5553 33.852 49.0583 33.852H23.684C23.1811 33.852 22.7348 33.7352 22.3453 33.5014C21.9557 33.2682 21.6603 32.9565 21.459 32.5665C21.2413 32.1699 21.1199 31.7441 21.0949 31.2891C21.07 30.8336 21.2001 30.3779 21.4852 29.9219ZM53.5975 67.587C49.7823 67.587 46.5821 66.2924 43.9969 63.7033C41.4123 61.1147 40.12 57.9138 40.12 54.1005C40.12 50.2872 41.4118 47.0843 43.9955 44.4917C46.5786 41.8986 49.7795 40.602 53.5983 40.602C57.417 40.602 60.62 41.8978 63.2071 44.4894C65.7937 47.0806 67.087 50.2845 67.087 54.1013C67.087 57.918 65.7925 61.1199 63.2033 63.7071C60.6147 66.2937 57.4128 67.587 53.5975 67.587ZM8.28717 63.1444V44.5958C8.28717 43.8766 8.5324 43.2686 9.02285 42.7716C9.51331 42.2742 10.1246 42.0254 10.8568 42.0254H29.4234C30.1436 42.0254 30.7492 42.2742 31.2401 42.7716C31.7306 43.2686 31.9758 43.8766 31.9758 44.5958V63.1444C31.9758 63.8766 31.7306 64.488 31.2401 64.9784C30.7492 65.4689 30.1436 65.7141 29.4234 65.7141H10.8568C10.1246 65.7141 9.51331 65.4689 9.02285 64.9784C8.5324 64.488 8.28717 63.8766 8.28717 63.1444ZM53.6103 62.465C55.9556 62.465 57.9344 61.6566 59.5466 60.0399C61.1589 58.4237 61.965 56.4429 61.965 54.0975C61.965 51.7521 61.1566 49.7703 59.5399 48.1521C57.9237 46.5334 55.9429 45.7241 53.5975 45.7241C51.2521 45.7241 49.2703 46.5354 47.6521 48.1581C46.0334 49.7808 45.2241 51.7649 45.2241 54.1102C45.2241 56.4556 46.0354 58.4344 47.6581 60.0466C49.2808 61.6589 51.2649 62.465 53.6103 62.465ZM13.4092 60.592H26.8717V47.1475H13.4092V60.592ZM28.2854 28.73H44.4569L36.3712 15.6353L28.2854 28.73Z" fill="black" fill-opacity="0.2"/>
</svg>
